<?xml version="1.0" encoding="UTF-8" standalone="no"?>
<!DOCTYPE svg PUBLIC "-//W3C//DTD SVG 1.1//EN"
 "http://www.w3.org/Graphics/SVG/1.1/DTD/svg11.dtd">
<!-- Generated by graphviz version 2.38.0 (20140413.2041)
 -->
<!-- Title: Tree Pages: 1 -->
<svg width="1245pt" height="581pt"
 viewBox="0.00 0.00 1245.00 581.00" xmlns="http://www.w3.org/2000/svg" xmlns:xlink="http://www.w3.org/1999/xlink">
<g id="graph0" class="graph" transform="scale(1 1) rotate(0) translate(4 577)">
<title>Tree</title>
<polygon fill="white" stroke="none" points="-4,4 -4,-577 1241,-577 1241,4 -4,4"/>
<!-- 0 -->
<g id="node1" class="node"><title>0</title>
<polygon fill="#add6f4" stroke="black" points="606,-573 488,-573 488,-505 606,-505 606,-573"/>
<text text-anchor="middle" x="547" y="-557.8" font-family="Times New Roman,serif" font-size="14.00">X[22] &lt;= 106.05</text>
<text text-anchor="middle" x="547" y="-542.8" font-family="Times New Roman,serif" font-size="14.00">samples = 426</text>
<text text-anchor="middle" x="547" y="-527.8" font-family="Times New Roman,serif" font-size="14.00">value = [157, 269]</text>
<text text-anchor="middle" x="547" y="-512.8" font-family="Times New Roman,serif" font-size="14.00">class = 양성</text>
</g>
<!-- 1 -->
<g id="node2" class="node"><title>1</title>
<polygon fill="#40a1e6" stroke="black" points="514,-469 410,-469 410,-401 514,-401 514,-469"/>
<text text-anchor="middle" x="462" y="-453.8" font-family="Times New Roman,serif" font-size="14.00">X[27] &lt;= 0.159</text>
<text text-anchor="middle" x="462" y="-438.8" font-family="Times New Roman,serif" font-size="14.00">samples = 259</text>
<text text-anchor="middle" x="462" y="-423.8" font-family="Times New Roman,serif" font-size="14.00">value = [9, 250]</text>
<text text-anchor="middle" x="462" y="-408.8" font-family="Times New Roman,serif" font-size="14.00">class = 양성</text>
</g>
<!-- 0&#45;&gt;1 -->
<g id="edge1" class="edge"><title>0&#45;&gt;1</title>
<path fill="none" stroke="black" d="M519.403,-504.884C512.054,-496.065 504.025,-486.43 496.363,-477.235"/>
<polygon fill="black" stroke="black" points="498.84,-474.741 489.749,-469.299 493.463,-479.222 498.84,-474.741"/>
<text text-anchor="middle" x="487.486" y="-490.497" font-family="Times New Roman,serif" font-size="14.00">True</text>
</g>
<!-- 14 -->
<g id="node15" class="node"><title>14</title>
<polygon fill="#e89152" stroke="black" points="687.5,-469 576.5,-469 576.5,-401 687.5,-401 687.5,-469"/>
<text text-anchor="middle" x="632" y="-453.8" font-family="Times New Roman,serif" font-size="14.00">X[21] &lt;= 20.645</text>
<text text-anchor="middle" x="632" y="-438.8" font-family="Times New Roman,serif" font-size="14.00">samples = 167</text>
<text text-anchor="middle" x="632" y="-423.8" font-family="Times New Roman,serif" font-size="14.00">value = [148, 19]</text>
<text text-anchor="middle" x="632" y="-408.8" font-family="Times New Roman,serif" font-size="14.00">class = 악성</text>
</g>
<!-- 0&#45;&gt;14 -->
<g id="edge14" class="edge"><title>0&#45;&gt;14</title>
<path fill="none" stroke="black" d="M574.597,-504.884C581.946,-496.065 589.975,-486.43 597.637,-477.235"/>
<polygon fill="black" stroke="black" points="600.537,-479.222 604.251,-469.299 595.16,-474.741 600.537,-479.222"/>
<text text-anchor="middle" x="606.514" y="-490.497" font-family="Times New Roman,serif" font-size="14.00">False</text>
</g>
<!-- 2 -->
<g id="node3" class="node"><title>2</title>
<polygon fill="#3c9fe5" stroke="black" points="344,-365 240,-365 240,-297 344,-297 344,-365"/>
<text text-anchor="middle" x="292" y="-349.8" font-family="Times New Roman,serif" font-size="14.00">X[27] &lt;= 0.135</text>
<text text-anchor="middle" x="292" y="-334.8" font-family="Times New Roman,serif" font-size="14.00">samples = 253</text>
<text text-anchor="middle" x="292" y="-319.8" font-family="Times New Roman,serif" font-size="14.00">value = [4, 249]</text>
<text text-anchor="middle" x="292" y="-304.8" font-family="Times New Roman,serif" font-size="14.00">class = 양성</text>
</g>
<!-- 1&#45;&gt;2 -->
<g id="edge2" class="edge"><title>1&#45;&gt;2</title>
<path fill="none" stroke="black" d="M409.607,-402.564C391.668,-391.801 371.445,-379.667 352.893,-368.536"/>
<polygon fill="black" stroke="black" points="354.595,-365.476 344.22,-363.332 350.994,-371.478 354.595,-365.476"/>
</g>
<!-- 11 -->
<g id="node12" class="node"><title>11</title>
<polygon fill="#ea9a61" stroke="black" points="517,-365 407,-365 407,-297 517,-297 517,-365"/>
<text text-anchor="middle" x="462" y="-349.8" font-family="Times New Roman,serif" font-size="14.00">X[21] &lt;= 24.785</text>
<text text-anchor="middle" x="462" y="-334.8" font-family="Times New Roman,serif" font-size="14.00">samples = 6</text>
<text text-anchor="middle" x="462" y="-319.8" font-family="Times New Roman,serif" font-size="14.00">value = [5, 1]</text>
<text text-anchor="middle" x="462" y="-304.8" font-family="Times New Roman,serif" font-size="14.00">class = 악성</text>
</g>
<!-- 1&#45;&gt;11 -->
<g id="edge11" class="edge"><title>1&#45;&gt;11</title>
<path fill="none" stroke="black" d="M462,-400.884C462,-392.778 462,-383.982 462,-375.472"/>
<polygon fill="black" stroke="black" points="465.5,-375.299 462,-365.299 458.5,-375.299 465.5,-375.299"/>
</g>
<!-- 3 -->
<g id="node4" class="node"><title>3</title>
<polygon fill="#3a9de5" stroke="black" points="225,-261 121,-261 121,-193 225,-193 225,-261"/>
<text text-anchor="middle" x="173" y="-245.8" font-family="Times New Roman,serif" font-size="14.00">X[10] &lt;= 0.643</text>
<text text-anchor="middle" x="173" y="-230.8" font-family="Times New Roman,serif" font-size="14.00">samples = 242</text>
<text text-anchor="middle" x="173" y="-215.8" font-family="Times New Roman,serif" font-size="14.00">value = [1, 241]</text>
<text text-anchor="middle" x="173" y="-200.8" font-family="Times New Roman,serif" font-size="14.00">class = 양성</text>
</g>
<!-- 2&#45;&gt;3 -->
<g id="edge3" class="edge"><title>2&#45;&gt;3</title>
<path fill="none" stroke="black" d="M253.364,-296.884C242.556,-287.62 230.697,-277.455 219.486,-267.845"/>
<polygon fill="black" stroke="black" points="221.72,-265.15 211.849,-261.299 217.164,-270.465 221.72,-265.15"/>
</g>
<!-- 8 -->
<g id="node9" class="node"><title>8</title>
<polygon fill="#83c2ef" stroke="black" points="340.5,-261 243.5,-261 243.5,-193 340.5,-193 340.5,-261"/>
<text text-anchor="middle" x="292" y="-245.8" font-family="Times New Roman,serif" font-size="14.00">X[1] &lt;= 20.84</text>
<text text-anchor="middle" x="292" y="-230.8" font-family="Times New Roman,serif" font-size="14.00">samples = 11</text>
<text text-anchor="middle" x="292" y="-215.8" font-family="Times New Roman,serif" font-size="14.00">value = [3, 8]</text>
<text text-anchor="middle" x="292" y="-200.8" font-family="Times New Roman,serif" font-size="14.00">class = 양성</text>
</g>
<!-- 2&#45;&gt;8 -->
<g id="edge8" class="edge"><title>2&#45;&gt;8</title>
<path fill="none" stroke="black" d="M292,-296.884C292,-288.778 292,-279.982 292,-271.472"/>
<polygon fill="black" stroke="black" points="295.5,-271.299 292,-261.299 288.5,-271.299 295.5,-271.299"/>
</g>
<!-- 4 -->
<g id="node5" class="node"><title>4</title>
<polygon fill="#399de5" stroke="black" points="104,-149.5 0,-149.5 0,-96.5 104,-96.5 104,-149.5"/>
<text text-anchor="middle" x="52" y="-134.3" font-family="Times New Roman,serif" font-size="14.00">samples = 239</text>
<text text-anchor="middle" x="52" y="-119.3" font-family="Times New Roman,serif" font-size="14.00">value = [0, 239]</text>
<text text-anchor="middle" x="52" y="-104.3" font-family="Times New Roman,serif" font-size="14.00">class = 양성</text>
</g>
<!-- 3&#45;&gt;4 -->
<g id="edge4" class="edge"><title>3&#45;&gt;4</title>
<path fill="none" stroke="black" d="M133.715,-192.884C119.755,-181.116 104.07,-167.894 90.202,-156.203"/>
<polygon fill="black" stroke="black" points="92.1753,-153.289 82.2736,-149.52 87.6637,-158.641 92.1753,-153.289"/>
</g>
<!-- 5 -->
<g id="node6" class="node"><title>5</title>
<polygon fill="#9ccef2" stroke="black" points="226,-157 122,-157 122,-89 226,-89 226,-157"/>
<text text-anchor="middle" x="174" y="-141.8" font-family="Times New Roman,serif" font-size="14.00">X[13] &lt;= 51.38</text>
<text text-anchor="middle" x="174" y="-126.8" font-family="Times New Roman,serif" font-size="14.00">samples = 3</text>
<text text-anchor="middle" x="174" y="-111.8" font-family="Times New Roman,serif" font-size="14.00">value = [1, 2]</text>
<text text-anchor="middle" x="174" y="-96.8" font-family="Times New Roman,serif" font-size="14.00">class = 양성</text>
</g>
<!-- 3&#45;&gt;5 -->
<g id="edge5" class="edge"><title>3&#45;&gt;5</title>
<path fill="none" stroke="black" d="M173.325,-192.884C173.404,-184.778 173.49,-175.982 173.574,-167.472"/>
<polygon fill="black" stroke="black" points="177.075,-167.333 173.674,-157.299 170.076,-167.265 177.075,-167.333"/>
</g>
<!-- 6 -->
<g id="node7" class="node"><title>6</title>
<polygon fill="#e58139" stroke="black" points="164.5,-53 73.5,-53 73.5,-0 164.5,-0 164.5,-53"/>
<text text-anchor="middle" x="119" y="-37.8" font-family="Times New Roman,serif" font-size="14.00">samples = 1</text>
<text text-anchor="middle" x="119" y="-22.8" font-family="Times New Roman,serif" font-size="14.00">value = [1, 0]</text>
<text text-anchor="middle" x="119" y="-7.8" font-family="Times New Roman,serif" font-size="14.00">class = 악성</text>
</g>
<!-- 5&#45;&gt;6 -->
<g id="edge6" class="edge"><title>5&#45;&gt;6</title>
<path fill="none" stroke="black" d="M154.764,-88.9485C149.706,-80.2579 144.236,-70.8608 139.133,-62.0917"/>
<polygon fill="black" stroke="black" points="142.034,-60.1189 133.979,-53.2367 135.984,-63.6401 142.034,-60.1189"/>
</g>
<!-- 7 -->
<g id="node8" class="node"><title>7</title>
<polygon fill="#399de5" stroke="black" points="273.5,-53 182.5,-53 182.5,-0 273.5,-0 273.5,-53"/>
<text text-anchor="middle" x="228" y="-37.8" font-family="Times New Roman,serif" font-size="14.00">samples = 2</text>
<text text-anchor="middle" x="228" y="-22.8" font-family="Times New Roman,serif" font-size="14.00">value = [0, 2]</text>
<text text-anchor="middle" x="228" y="-7.8" font-family="Times New Roman,serif" font-size="14.00">class = 양성</text>
</g>
<!-- 5&#45;&gt;7 -->
<g id="edge7" class="edge"><title>5&#45;&gt;7</title>
<path fill="none" stroke="black" d="M192.887,-88.9485C197.853,-80.2579 203.222,-70.8608 208.233,-62.0917"/>
<polygon fill="black" stroke="black" points="211.371,-63.6557 213.293,-53.2367 205.293,-60.1826 211.371,-63.6557"/>
</g>
<!-- 9 -->
<g id="node10" class="node"><title>9</title>
<polygon fill="#399de5" stroke="black" points="336.5,-149.5 245.5,-149.5 245.5,-96.5 336.5,-96.5 336.5,-149.5"/>
<text text-anchor="middle" x="291" y="-134.3" font-family="Times New Roman,serif" font-size="14.00">samples = 8</text>
<text text-anchor="middle" x="291" y="-119.3" font-family="Times New Roman,serif" font-size="14.00">value = [0, 8]</text>
<text text-anchor="middle" x="291" y="-104.3" font-family="Times New Roman,serif" font-size="14.00">class = 양성</text>
</g>
<!-- 8&#45;&gt;9 -->
<g id="edge9" class="edge"><title>8&#45;&gt;9</title>
<path fill="none" stroke="black" d="M291.675,-192.884C291.572,-182.326 291.457,-170.597 291.352,-159.854"/>
<polygon fill="black" stroke="black" points="294.848,-159.485 291.25,-149.52 287.848,-159.554 294.848,-159.485"/>
</g>
<!-- 10 -->
<g id="node11" class="node"><title>10</title>
<polygon fill="#e58139" stroke="black" points="445.5,-149.5 354.5,-149.5 354.5,-96.5 445.5,-96.5 445.5,-149.5"/>
<text text-anchor="middle" x="400" y="-134.3" font-family="Times New Roman,serif" font-size="14.00">samples = 3</text>
<text text-anchor="middle" x="400" y="-119.3" font-family="Times New Roman,serif" font-size="14.00">value = [3, 0]</text>
<text text-anchor="middle" x="400" y="-104.3" font-family="Times New Roman,serif" font-size="14.00">class = 악성</text>
</g>
<!-- 8&#45;&gt;10 -->
<g id="edge10" class="edge"><title>8&#45;&gt;10</title>
<path fill="none" stroke="black" d="M327.065,-192.884C339.408,-181.226 353.263,-168.141 365.555,-156.532"/>
<polygon fill="black" stroke="black" points="368.112,-158.931 372.979,-149.52 363.306,-153.842 368.112,-158.931"/>
</g>
<!-- 12 -->
<g id="node13" class="node"><title>12</title>
<polygon fill="#399de5" stroke="black" points="449.5,-253.5 358.5,-253.5 358.5,-200.5 449.5,-200.5 449.5,-253.5"/>
<text text-anchor="middle" x="404" y="-238.3" font-family="Times New Roman,serif" font-size="14.00">samples = 1</text>
<text text-anchor="middle" x="404" y="-223.3" font-family="Times New Roman,serif" font-size="14.00">value = [0, 1]</text>
<text text-anchor="middle" x="404" y="-208.3" font-family="Times New Roman,serif" font-size="14.00">class = 양성</text>
</g>
<!-- 11&#45;&gt;12 -->
<g id="edge12" class="edge"><title>11&#45;&gt;12</title>
<path fill="none" stroke="black" d="M443.169,-296.884C436.915,-285.886 429.939,-273.617 423.627,-262.517"/>
<polygon fill="black" stroke="black" points="426.497,-260.483 418.511,-253.52 420.412,-263.943 426.497,-260.483"/>
</g>
<!-- 13 -->
<g id="node14" class="node"><title>13</title>
<polygon fill="#e58139" stroke="black" points="558.5,-253.5 467.5,-253.5 467.5,-200.5 558.5,-200.5 558.5,-253.5"/>
<text text-anchor="middle" x="513" y="-238.3" font-family="Times New Roman,serif" font-size="14.00">samples = 5</text>
<text text-anchor="middle" x="513" y="-223.3" font-family="Times New Roman,serif" font-size="14.00">value = [5, 0]</text>
<text text-anchor="middle" x="513" y="-208.3" font-family="Times New Roman,serif" font-size="14.00">class = 악성</text>
</g>
<!-- 11&#45;&gt;13 -->
<g id="edge13" class="edge"><title>11&#45;&gt;13</title>
<path fill="none" stroke="black" d="M478.558,-296.884C484.057,-285.886 490.191,-273.617 495.742,-262.517"/>
<polygon fill="black" stroke="black" points="498.898,-264.029 500.24,-253.52 492.637,-260.899 498.898,-264.029"/>
</g>
<!-- 15 -->
<g id="node16" class="node"><title>15</title>
<polygon fill="#7bbeee" stroke="black" points="684,-365 580,-365 580,-297 684,-297 684,-365"/>
<text text-anchor="middle" x="632" y="-349.8" font-family="Times New Roman,serif" font-size="14.00">X[23] &lt;= 964.4</text>
<text text-anchor="middle" x="632" y="-334.8" font-family="Times New Roman,serif" font-size="14.00">samples = 16</text>
<text text-anchor="middle" x="632" y="-319.8" font-family="Times New Roman,serif" font-size="14.00">value = [4, 12]</text>
<text text-anchor="middle" x="632" y="-304.8" font-family="Times New Roman,serif" font-size="14.00">class = 양성</text>
</g>
<!-- 14&#45;&gt;15 -->
<g id="edge15" class="edge"><title>14&#45;&gt;15</title>
<path fill="none" stroke="black" d="M632,-400.884C632,-392.778 632,-383.982 632,-375.472"/>
<polygon fill="black" stroke="black" points="635.5,-375.299 632,-365.299 628.5,-375.299 635.5,-375.299"/>
</g>
<!-- 20 -->
<g id="node21" class="node"><title>20</title>
<polygon fill="#e68743" stroke="black" points="955,-365 851,-365 851,-297 955,-297 955,-365"/>
<text text-anchor="middle" x="903" y="-349.8" font-family="Times New Roman,serif" font-size="14.00">X[7] &lt;= 0.049</text>
<text text-anchor="middle" x="903" y="-334.8" font-family="Times New Roman,serif" font-size="14.00">samples = 151</text>
<text text-anchor="middle" x="903" y="-319.8" font-family="Times New Roman,serif" font-size="14.00">value = [144, 7]</text>
<text text-anchor="middle" x="903" y="-304.8" font-family="Times New Roman,serif" font-size="14.00">class = 악성</text>
</g>
<!-- 14&#45;&gt;20 -->
<g id="edge20" class="edge"><title>14&#45;&gt;20</title>
<path fill="none" stroke="black" d="M687.823,-412.989C732.521,-396.165 795.161,-372.589 841.334,-355.21"/>
<polygon fill="black" stroke="black" points="842.798,-358.399 850.925,-351.6 840.333,-351.847 842.798,-358.399"/>
</g>
<!-- 16 -->
<g id="node17" class="node"><title>16</title>
<polygon fill="#399de5" stroke="black" points="675,-253.5 577,-253.5 577,-200.5 675,-200.5 675,-253.5"/>
<text text-anchor="middle" x="626" y="-238.3" font-family="Times New Roman,serif" font-size="14.00">samples = 11</text>
<text text-anchor="middle" x="626" y="-223.3" font-family="Times New Roman,serif" font-size="14.00">value = [0, 11]</text>
<text text-anchor="middle" x="626" y="-208.3" font-family="Times New Roman,serif" font-size="14.00">class = 양성</text>
</g>
<!-- 15&#45;&gt;16 -->
<g id="edge16" class="edge"><title>15&#45;&gt;16</title>
<path fill="none" stroke="black" d="M630.052,-296.884C629.424,-286.216 628.727,-274.352 628.089,-263.519"/>
<polygon fill="black" stroke="black" points="631.582,-263.297 627.501,-253.52 624.595,-263.708 631.582,-263.297"/>
</g>
<!-- 17 -->
<g id="node18" class="node"><title>17</title>
<polygon fill="#eca06a" stroke="black" points="790.5,-261 693.5,-261 693.5,-193 790.5,-193 790.5,-261"/>
<text text-anchor="middle" x="742" y="-245.8" font-family="Times New Roman,serif" font-size="14.00">X[9] &lt;= 0.054</text>
<text text-anchor="middle" x="742" y="-230.8" font-family="Times New Roman,serif" font-size="14.00">samples = 5</text>
<text text-anchor="middle" x="742" y="-215.8" font-family="Times New Roman,serif" font-size="14.00">value = [4, 1]</text>
<text text-anchor="middle" x="742" y="-200.8" font-family="Times New Roman,serif" font-size="14.00">class = 악성</text>
</g>
<!-- 15&#45;&gt;17 -->
<g id="edge17" class="edge"><title>15&#45;&gt;17</title>
<path fill="none" stroke="black" d="M667.714,-296.884C677.608,-287.709 688.456,-277.65 698.73,-268.123"/>
<polygon fill="black" stroke="black" points="701.136,-270.665 706.089,-261.299 696.376,-265.532 701.136,-270.665"/>
</g>
<!-- 18 -->
<g id="node19" class="node"><title>18</title>
<polygon fill="#399de5" stroke="black" points="678.5,-149.5 587.5,-149.5 587.5,-96.5 678.5,-96.5 678.5,-149.5"/>
<text text-anchor="middle" x="633" y="-134.3" font-family="Times New Roman,serif" font-size="14.00">samples = 1</text>
<text text-anchor="middle" x="633" y="-119.3" font-family="Times New Roman,serif" font-size="14.00">value = [0, 1]</text>
<text text-anchor="middle" x="633" y="-104.3" font-family="Times New Roman,serif" font-size="14.00">class = 양성</text>
</g>
<!-- 17&#45;&gt;18 -->
<g id="edge18" class="edge"><title>17&#45;&gt;18</title>
<path fill="none" stroke="black" d="M706.611,-192.884C694.153,-181.226 680.17,-168.141 667.764,-156.532"/>
<polygon fill="black" stroke="black" points="669.964,-153.797 660.271,-149.52 665.181,-158.908 669.964,-153.797"/>
</g>
<!-- 19 -->
<g id="node20" class="node"><title>19</title>
<polygon fill="#e58139" stroke="black" points="787.5,-149.5 696.5,-149.5 696.5,-96.5 787.5,-96.5 787.5,-149.5"/>
<text text-anchor="middle" x="742" y="-134.3" font-family="Times New Roman,serif" font-size="14.00">samples = 4</text>
<text text-anchor="middle" x="742" y="-119.3" font-family="Times New Roman,serif" font-size="14.00">value = [4, 0]</text>
<text text-anchor="middle" x="742" y="-104.3" font-family="Times New Roman,serif" font-size="14.00">class = 악성</text>
</g>
<!-- 17&#45;&gt;19 -->
<g id="edge19" class="edge"><title>17&#45;&gt;19</title>
<path fill="none" stroke="black" d="M742,-192.884C742,-182.326 742,-170.597 742,-159.854"/>
<polygon fill="black" stroke="black" points="745.5,-159.52 742,-149.52 738.5,-159.52 745.5,-159.52"/>
</g>
<!-- 21 -->
<g id="node22" class="node"><title>21</title>
<polygon fill="#f6d5bd" stroke="black" points="951.5,-261 854.5,-261 854.5,-193 951.5,-193 951.5,-261"/>
<text text-anchor="middle" x="903" y="-245.8" font-family="Times New Roman,serif" font-size="14.00">X[17] &lt;= 0.01</text>
<text text-anchor="middle" x="903" y="-230.8" font-family="Times New Roman,serif" font-size="14.00">samples = 15</text>
<text text-anchor="middle" x="903" y="-215.8" font-family="Times New Roman,serif" font-size="14.00">value = [9, 6]</text>
<text text-anchor="middle" x="903" y="-200.8" font-family="Times New Roman,serif" font-size="14.00">class = 악성</text>
</g>
<!-- 20&#45;&gt;21 -->
<g id="edge21" class="edge"><title>20&#45;&gt;21</title>
<path fill="none" stroke="black" d="M903,-296.884C903,-288.778 903,-279.982 903,-271.472"/>
<polygon fill="black" stroke="black" points="906.5,-271.299 903,-261.299 899.5,-271.299 906.5,-271.299"/>
</g>
<!-- 24 -->
<g id="node25" class="node"><title>24</title>
<polygon fill="#e5823a" stroke="black" points="1121,-261 1017,-261 1017,-193 1121,-193 1121,-261"/>
<text text-anchor="middle" x="1069" y="-245.8" font-family="Times New Roman,serif" font-size="14.00">X[24] &lt;= 0.096</text>
<text text-anchor="middle" x="1069" y="-230.8" font-family="Times New Roman,serif" font-size="14.00">samples = 136</text>
<text text-anchor="middle" x="1069" y="-215.8" font-family="Times New Roman,serif" font-size="14.00">value = [135, 1]</text>
<text text-anchor="middle" x="1069" y="-200.8" font-family="Times New Roman,serif" font-size="14.00">class = 악성</text>
</g>
<!-- 20&#45;&gt;24 -->
<g id="edge24" class="edge"><title>20&#45;&gt;24</title>
<path fill="none" stroke="black" d="M955.068,-298.006C971.829,-287.708 990.553,-276.202 1007.9,-265.542"/>
<polygon fill="black" stroke="black" points="1010.14,-268.273 1016.83,-260.055 1006.48,-262.309 1010.14,-268.273"/>
</g>
<!-- 22 -->
<g id="node23" class="node"><title>22</title>
<polygon fill="#e58139" stroke="black" points="896.5,-149.5 805.5,-149.5 805.5,-96.5 896.5,-96.5 896.5,-149.5"/>
<text text-anchor="middle" x="851" y="-134.3" font-family="Times New Roman,serif" font-size="14.00">samples = 9</text>
<text text-anchor="middle" x="851" y="-119.3" font-family="Times New Roman,serif" font-size="14.00">value = [9, 0]</text>
<text text-anchor="middle" x="851" y="-104.3" font-family="Times New Roman,serif" font-size="14.00">class = 악성</text>
</g>
<!-- 21&#45;&gt;22 -->
<g id="edge22" class="edge"><title>21&#45;&gt;22</title>
<path fill="none" stroke="black" d="M886.117,-192.884C880.51,-181.886 874.256,-169.617 868.597,-158.517"/>
<polygon fill="black" stroke="black" points="871.67,-156.839 864.01,-149.52 865.434,-160.019 871.67,-156.839"/>
</g>
<!-- 23 -->
<g id="node24" class="node"><title>23</title>
<polygon fill="#399de5" stroke="black" points="1005.5,-149.5 914.5,-149.5 914.5,-96.5 1005.5,-96.5 1005.5,-149.5"/>
<text text-anchor="middle" x="960" y="-134.3" font-family="Times New Roman,serif" font-size="14.00">samples = 6</text>
<text text-anchor="middle" x="960" y="-119.3" font-family="Times New Roman,serif" font-size="14.00">value = [0, 6]</text>
<text text-anchor="middle" x="960" y="-104.3" font-family="Times New Roman,serif" font-size="14.00">class = 양성</text>
</g>
<!-- 21&#45;&gt;23 -->
<g id="edge23" class="edge"><title>21&#45;&gt;23</title>
<path fill="none" stroke="black" d="M921.506,-192.884C927.652,-181.886 934.508,-169.617 940.711,-158.517"/>
<polygon fill="black" stroke="black" points="943.916,-159.957 945.739,-149.52 937.805,-156.542 943.916,-159.957"/>
</g>
<!-- 25 -->
<g id="node26" class="node"><title>25</title>
<polygon fill="#399de5" stroke="black" points="1114.5,-149.5 1023.5,-149.5 1023.5,-96.5 1114.5,-96.5 1114.5,-149.5"/>
<text text-anchor="middle" x="1069" y="-134.3" font-family="Times New Roman,serif" font-size="14.00">samples = 1</text>
<text text-anchor="middle" x="1069" y="-119.3" font-family="Times New Roman,serif" font-size="14.00">value = [0, 1]</text>
<text text-anchor="middle" x="1069" y="-104.3" font-family="Times New Roman,serif" font-size="14.00">class = 양성</text>
</g>
<!-- 24&#45;&gt;25 -->
<g id="edge25" class="edge"><title>24&#45;&gt;25</title>
<path fill="none" stroke="black" d="M1069,-192.884C1069,-182.326 1069,-170.597 1069,-159.854"/>
<polygon fill="black" stroke="black" points="1072.5,-159.52 1069,-149.52 1065.5,-159.52 1072.5,-159.52"/>
</g>
<!-- 26 -->
<g id="node27" class="node"><title>26</title>
<polygon fill="#e58139" stroke="black" points="1237,-149.5 1133,-149.5 1133,-96.5 1237,-96.5 1237,-149.5"/>
<text text-anchor="middle" x="1185" y="-134.3" font-family="Times New Roman,serif" font-size="14.00">samples = 135</text>
<text text-anchor="middle" x="1185" y="-119.3" font-family="Times New Roman,serif" font-size="14.00">value = [135, 0]</text>
<text text-anchor="middle" x="1185" y="-104.3" font-family="Times New Roman,serif" font-size="14.00">class = 악성</text>
</g>
<!-- 24&#45;&gt;26 -->
<g id="edge26" class="edge"><title>24&#45;&gt;26</title>
<path fill="none" stroke="black" d="M1106.66,-192.884C1120.04,-181.116 1135.08,-167.894 1148.38,-156.203"/>
<polygon fill="black" stroke="black" points="1150.78,-158.752 1155.98,-149.52 1146.16,-153.495 1150.78,-158.752"/>
</g>
</g>
</svg>
